<svg xmlns="http://www.w3.org/2000/svg" viewBox="0 0 20.89 20.88"><defs><style>.cls-1{fill:#b2b2b2;}</style></defs><title>youtubeAsset 13</title><g id="Layer_2" data-name="Layer 2"><g id="homepage"><g id="footer"><path class="cls-1" d="M10.45,20.88A10.44,10.44,0,1,1,20.89,10.44,10.46,10.46,0,0,1,10.45,20.88ZM10.45.5a9.94,9.94,0,1,0,10,9.94A10,10,0,0,0,10.45.5Z"/><path class="cls-1" d="M14.1,4.49H6.8a2.31,2.31,0,0,0-2.3,2.3v7.3a2.3,2.3,0,0,0,2.3,2.29h7.3a2.3,2.3,0,0,0,2.3-2.29V6.79a2.31,2.31,0,0,0-2.3-2.3m.66,1.37H15v2H13v-2Zm-6,3.36a2.08,2.08,0,0,1,3.4,0,2,2,0,0,1,.39,1.22A2.09,2.09,0,1,1,8.75,9.22m6.49,4.87a1.15,1.15,0,0,1-1.14,1.14H6.8a1.15,1.15,0,0,1-1.14-1.14V9.22H7.44a3.09,3.09,0,0,0-.24,1.22,3.25,3.25,0,0,0,6.5,0,3.09,3.09,0,0,0-.24-1.22h1.78Z"/></g></g></g></svg>