<svg xmlns="http://www.w3.org/2000/svg" viewBox="0 0 220.81 60.01"><defs><style>.cls-1{fill:#1d1d1b;}</style></defs><title>bannerAsset 3</title><g id="Layer_2" data-name="Layer 2"><g id="static_menu"><path class="cls-1" d="M12.72,40H6.26V7.44L0,10.13V4.53C2.26,3.22,3.79,2.62,6.26,1h6.46Z"/><path class="cls-1" d="M33.22,40H26.76V7.44L20.5,10.13V4.53A71.52,71.52,0,0,0,26.76,1h6.46Z"/><path class="cls-1" d="M53.55,40H47.08V7.44l-6.25,2.69V4.53C43.49,3.11,44.75,2.45,47.08,1h6.47Z"/><path class="cls-1" d="M100.72,10.13A38.66,38.66,0,0,0,83,5.72c-4,0-7,.46-9.16,1.4S70.69,9.34,70.69,11s1.13,3,3.4,3.77A31,31,0,0,0,82,16c5.39.37,8.95.65,10.68.87,4.89.65,8.49,1.85,10.83,3.61A8.82,8.82,0,0,1,107,27.92a10.69,10.69,0,0,1-5.51,9.6Q96,40.91,85.73,40.92q-14.94,0-23.23-6.58l3.56-4.69a37.19,37.19,0,0,0,19.72,5.61q6.85,0,10.63-1.89,3.6-1.83,3.6-5,0-3.72-4.74-5c-1.65-.43-6.11-.89-13.37-1.35q-9.65-.64-13.53-2.59a7.84,7.84,0,0,1-4.53-7.6q0-5.49,5.15-8.68T83.52,0q12.62,0,21.13,5.77Z"/><polygon class="cls-1" points="157.62 40 149.3 40 130.62 19.49 118.8 28.16 118.8 40 112.34 40 112.34 0.97 118.8 0.97 118.8 21.18 146.14 0.97 155.47 0.97 135.51 15.74 157.62 40"/><rect class="cls-1" x="161.95" y="0.97" width="6.47" height="39.03"/><polygon class="cls-1" points="220.8 40 212.75 40 182.96 8 182.96 40 176.49 40 176.49 0.97 184.52 0.97 214.33 33 214.33 0.97 220.8 0.97 220.8 40"/><polygon class="cls-1" points="13.79 59.68 12.68 59.68 12.68 55.81 7.33 55.81 7.33 59.68 6.22 59.68 6.22 50.97 7.33 50.97 7.33 54.5 12.68 54.5 12.68 50.97 13.79 50.97 13.79 59.68"/><path class="cls-1" d="M29.15,59.68H27.94l-.77-1.94h-4.5l-.77,1.94H20.68L24.22,51h1.39Zm-2.52-3.25-1.7-4.22L23.2,56.43Z"/><path class="cls-1" d="M43.74,59.69H42.45l-1.82-3.33H37.26v3.33H36.15V51h5.27a2,2,0,0,1,1.65.74,3.55,3.55,0,0,1,.12,3.79,2,2,0,0,1-1.25.79Zm-2.48-4.63c.86,0,1.28-.45,1.28-1.35s-.46-1.45-1.38-1.45h-3.9v2.8Z"/><polygon class="cls-1" points="57.52 59.68 51.24 59.68 51.24 50.97 52.35 50.97 52.35 58.38 57.52 58.38 57.52 59.68"/><polygon class="cls-1" points="71.53 59.68 64.53 59.68 64.53 50.97 71.27 50.97 71.27 52.27 65.64 52.27 65.64 54.5 69.55 54.5 69.55 55.81 65.64 55.81 65.64 58.38 71.53 58.38 71.53 59.68"/><polygon class="cls-1" points="85.99 50.97 82.34 56.24 82.34 59.68 81.23 59.68 81.23 56.24 77.57 50.97 78.95 50.97 81.79 55.04 84.61 50.97 85.99 50.97"/><path class="cls-1" d="M104.52,53a5.39,5.39,0,0,0-3-1,3.18,3.18,0,0,0-1.57.31,1,1,0,0,0-.54.87.9.9,0,0,0,.58.85,4.63,4.63,0,0,0,1.36.26c.92.08,1.53.13,1.82.18a3.43,3.43,0,0,1,1.86.82,2.23,2.23,0,0,1,.6,1.67,2.65,2.65,0,0,1-.94,2.15,4.27,4.27,0,0,1-2.71.76,5.31,5.31,0,0,1-4-1.48l.61-1.05A5.31,5.31,0,0,0,102,58.62a3.43,3.43,0,0,0,1.82-.41,1.31,1.31,0,0,0,.62-1.12,1.08,1.08,0,0,0-.82-1.11,12.75,12.75,0,0,0-2.28-.3A5.41,5.41,0,0,1,99,55.1a1.87,1.87,0,0,1-.78-1.7,2.37,2.37,0,0,1,.89-1.94,3.87,3.87,0,0,1,2.48-.71A5.26,5.26,0,0,1,105.19,52Z"/><polygon class="cls-1" points="119.04 52.27 115.84 52.27 115.84 59.69 114.74 59.69 114.74 52.27 111.54 52.27 111.54 50.97 119.04 50.97 119.04 52.27"/><rect class="cls-1" x="120.03" y="58.37" width="1.43" height="1.31"/><polygon class="cls-1" points="143.88 59.68 137.6 59.68 137.6 50.97 138.71 50.97 138.71 58.38 143.88 58.38 143.88 59.68"/><path class="cls-1" d="M158.49,55.32a4.66,4.66,0,0,1-1.35,3.47,4.32,4.32,0,0,1-5.89,0,5.06,5.06,0,0,1,0-6.9,4,4,0,0,1,2.94-1.18,4,4,0,0,1,2.92,1.18,4.64,4.64,0,0,1,1.36,3.45m-1.16,0a3.31,3.31,0,0,0-1-2.49,3,3,0,0,0-2.13-.81,3,3,0,0,0-2.28.93,3.71,3.71,0,0,0,0,4.76,3,3,0,0,0,2.29.91,3,3,0,0,0,2.27-.92,3.35,3.35,0,0,0,.85-2.38"/><polygon class="cls-1" points="174.05 59.68 172.67 59.68 167.56 52.54 167.56 59.68 166.46 59.68 166.46 50.97 167.83 50.97 172.94 58.12 172.94 50.97 174.05 50.97 174.05 59.68"/><path class="cls-1" d="M186.16,51a3.41,3.41,0,0,1,2.76,1.21,4.87,4.87,0,0,1,1,3.25,4.56,4.56,0,0,1-1.08,3.1,3.19,3.19,0,0,1-2.49,1.16h-4.44V51Zm.3,7.41a2,2,0,0,0,1.64-.84,3.39,3.39,0,0,0,.64-2.15,3.53,3.53,0,0,0-.69-2.27,2.22,2.22,0,0,0-1.8-.86H183v6.12Z"/><path class="cls-1" d="M205.67,55.39a4.66,4.66,0,0,1-1.35,3.47,4.33,4.33,0,0,1-5.89,0,5.06,5.06,0,0,1,0-6.9,4,4,0,0,1,2.94-1.18A4,4,0,0,1,204.31,52a4.64,4.64,0,0,1,1.36,3.44m-1.16,0a3.25,3.25,0,0,0-1-2.48,3.22,3.22,0,0,0-4.41.11,3.72,3.72,0,0,0,0,4.76,3,3,0,0,0,2.3.9,3,3,0,0,0,2.27-.91,3.34,3.34,0,0,0,.85-2.38"/><polygon class="cls-1" points="220.81 59.68 219.43 59.68 214.32 52.54 214.32 59.68 213.23 59.68 213.23 50.97 214.6 50.97 219.7 58.12 219.7 50.97 220.81 50.97 220.81 59.68"/></g></g></svg>