<svg xmlns="http://www.w3.org/2000/svg" viewBox="0 0 140.4 34.33"><defs><style>.cls-1{fill:#575756;}</style></defs><title>quoteAsset 8</title><g id="Layer_2" data-name="Layer 2"><g id="homepage"><g id="Mini_Banner_text_botton" data-name="Mini Banner + text+botton"><path class="cls-1" d="M21.63,34.33H0V15.21Q0,0,17.45,0h3.21V8.23q-10.47.15-10.47,5.94v5.09H21.63Zm33.22,0H33.22V15.21Q33.22,0,50.66,0h3.21V8.23Q43.4,8.38,43.4,14.17v5.09H54.85Z"/><path class="cls-1" d="M107.18,19.12q0,15.21-17.44,15.21H86.53V26.1Q97,26.1,97,20.16V15.07H85.55V0h21.63Zm33.22,0q0,15.21-17.45,15.21h-3.21V26.1q10.47,0,10.47-5.94V15.07H118.77V0H140.4Z"/></g></g></g></svg>