<svg xmlns="http://www.w3.org/2000/svg" viewBox="0 0 26.55 28"><defs><style>.cls-1{fill:#1d1d1b;}</style></defs><title>searchAsset 7</title><g id="Layer_2" data-name="Layer 2"><g id="static_menu"><path class="cls-1" d="M18.1,17.83c2.57,2.82,5.11,5.57,7.61,8.34.4.44,1.26.95.59,1.59s-1.12-.24-1.53-.68c-2.24-2.41-4.46-4.85-6.68-7.28l-.91-1c-6.79,3.38-12,2.55-15.37-2.35A10.47,10.47,0,0,1,3.34,2.85a10.31,10.31,0,0,1,14.09-.14C20.75,5.51,23,11.82,18.1,17.83Zm-7.58,1.81a9.22,9.22,0,0,0,9.13-9.21,9.32,9.32,0,0,0-9.16-9.1,9.26,9.26,0,0,0-9.17,9.19A9.17,9.17,0,0,0,10.52,19.64Z"/></g></g></svg>