<svg xmlns="http://www.w3.org/2000/svg" viewBox="0 0 29.01 28.06"><defs><style>.cls-1{fill:#1d1d1b;}</style></defs><title>shopingbagAsset 6</title><g id="Layer_2" data-name="Layer 2"><g id="static_menu"><path class="cls-1" d="M6.43,6.41c.05-.33.1-.68.17-1A6.56,6.56,0,0,1,13.21,0c.85,0,1.7,0,2.55,0a6.36,6.36,0,0,1,6.61,5.57c.11.77.4,1,1.17,1a1.83,1.83,0,0,1,2,1.69c1.13,5.82,2.27,11.64,3.36,17.47.32,1.71-.27,2.32-2,2.32H2.13c-1.9,0-2.38-.6-2-2.48q1.52-7.89,3-15.8C3.65,7,3.66,6.93,6.43,6.41ZM27.74,26.79a3,3,0,0,0,0-.57C26.65,20.36,25.51,14.5,24.4,8.64c-.16-.86-.71-1-1.42-1-5.69,0-11.38,0-17.07,0A1.28,1.28,0,0,0,4.45,8.9C3.7,13,2.88,17.12,2.09,21.22,1.74,23,1.4,24.87,1,26.79ZM18.41,6.53A5.31,5.31,0,0,0,15.83,2a2.67,2.67,0,0,0-1.46-.46c-1.94.16-3.86,2.91-3.52,5ZM17.52,1.6c.75,1.56,1.52,3.2,2.37,5l1.24-.07A4.57,4.57,0,0,0,17.52,1.6ZM9,6.49C9.87,4.65,10.63,3,11.31,1.55A4.68,4.68,0,0,0,7.88,6.49Z"/></g></g></svg>