<svg xmlns="http://www.w3.org/2000/svg" viewBox="0 0 20.89 20.88"><defs><style>.cls-1{fill:#b2b2b2;}</style></defs><title>youtubeAsset 10</title><g id="Layer_2" data-name="Layer 2"><g id="homepage"><g id="footer"><path class="cls-1" d="M10.45,20.88A10.44,10.44,0,1,1,20.89,10.44,10.46,10.46,0,0,1,10.45,20.88ZM10.45.5a9.94,9.94,0,1,0,9.94,9.94A10,10,0,0,0,10.45.5Z"/><path class="cls-1" d="M16.06,5.53a4.91,4.91,0,0,1-1.55.63,2.35,2.35,0,0,0-1.78-.82,2.51,2.51,0,0,0-2.44,2.57,2.27,2.27,0,0,0,.07.59,6.79,6.79,0,0,1-5-2.69A2.6,2.6,0,0,0,5,7.11,2.63,2.63,0,0,0,6.08,9.25,2.47,2.47,0,0,1,5,8.93V9a2.53,2.53,0,0,0,2,2.52,2.25,2.25,0,0,1-.64.09,2.32,2.32,0,0,1-.46,0,2.46,2.46,0,0,0,2.28,1.78,4.75,4.75,0,0,1-3,1.1,5.83,5.83,0,0,1-.59,0,6.66,6.66,0,0,0,3.74,1.15c4.5,0,7-3.92,7-7.32,0-.11,0-.22,0-.33a5.16,5.16,0,0,0,1.22-1.33A4.79,4.79,0,0,1,15,7a2.53,2.53,0,0,0,1.07-1.42"/></g></g></g></svg>