<svg xmlns="http://www.w3.org/2000/svg" viewBox="0 0 26.51 28"><defs><style>.cls-1{fill:#1d1d1b;}</style></defs><title>userAsset 5</title><g id="Layer_2" data-name="Layer 2"><g id="static_menu"><path class="cls-1" d="M13.34,28c-3.63,0-7.25,0-10.87,0C.58,28-.24,27,.06,25.07c.65-4.13,3.49-6.23,7.14-7.34a19.49,19.49,0,0,1,13.5.53c3,1.26,5.16,3.37,5.73,6.75.34,2-.49,3-2.47,3C20.42,28,16.88,28,13.34,28Zm-.23-1.28c3.54,0,7.08,0,10.62,0,1.37,0,1.61-.26,1.35-1.6a7.24,7.24,0,0,0-4.48-5.42,17.76,17.76,0,0,0-14.79,0A7.42,7.42,0,0,0,1.41,25c-.34,1.42,0,1.76,1.45,1.76C6.27,26.73,9.69,26.72,13.11,26.71Z"/><path class="cls-1" d="M13.23,15.32A7.73,7.73,0,0,1,5.57,7.74,7.86,7.86,0,0,1,13.25,0a7.79,7.79,0,0,1,7.64,7.76A7.68,7.68,0,0,1,13.23,15.32ZM6.92,7.65a6.34,6.34,0,0,0,6.32,6.41A6.43,6.43,0,0,0,19.6,7.78a6.35,6.35,0,0,0-6.29-6.43A6.27,6.27,0,0,0,6.92,7.65Z"/></g></g></svg>