<svg xmlns="http://www.w3.org/2000/svg" viewBox="0 0 20.89 20.88"><defs><style>.cls-1{fill:#b2b2b2;}</style></defs><title>youtubeAsset 28</title><g id="Layer_2" data-name="Layer 2"><g id="homepage"><g id="footer"><path class="cls-1" d="M10.45,20.88A10.44,10.44,0,1,1,20.89,10.44,10.46,10.46,0,0,1,10.45,20.88ZM10.45.5a9.94,9.94,0,1,0,10,9.94A10,10,0,0,0,10.45.5Z"/><path class="cls-1" d="M14.1,5.83H6.8A2.09,2.09,0,0,0,4.5,7.58v5.57a2.09,2.09,0,0,0,2.3,1.76h7.3a2.09,2.09,0,0,0,2.3-1.76V7.58A2.09,2.09,0,0,0,14.1,5.83ZM9.74,12.6l0-4.2,2.08,2.12Z"/></g></g></g></svg>